<svg id="Layer_1" data-name="Layer 1" xmlns="http://www.w3.org/2000/svg" viewBox="0 0 815.26 1001.89">
    <defs>
        <style>
            .cls-1,.cls-6{fill:#d0aa66;}.cls-1,.cls-2,.cls-3{fill-rule:evenodd;}.cls-2,.cls-4{fill:#fdfdfd;}.cls-3,.cls-7{fill:#002d5d;}.cls-5{fill:none;stroke:#d0aa66;stroke-miterlimit:2;stroke-width:0.21px;}
        </style>
    </defs>
    <title>university-of-ghana-logo</title>
    <path class="cls-1"
          d="M843.08,680.13c1.52-20.84-43.2-32.53-79.8-11.18C720.59,705,806,714.19,821.73,687.76c4.58-9.66-3.56-11.69-10.67-6.61-13.22,8.64-44.73,11.69-41.68-1.53,9.15-11.69,44.22-11.18,50.32-7.62,45.23,22.36-45.74,51.33-67.6,37.61C696.7,690.3,673.83,702,674.84,704c-.5,8.64,6.1,8.13,21.86,7.12a81.66,81.66,0,0,1,41.17,7.62c0,17.28,1.52,38.12,1.52,55.4,36.6,2,68.62-3,96.57-22.87C836.47,729.43,845.62,685.72,843.08,680.13Z"
          transform="translate(-92.37 0.94)"/>
    <path class="cls-1"
          d="M267.72,729.94c.51-11.69,28-12.7,63-10.67,2,7.11,0,12.2,2,23.38,113.85,18.3,228.72,19.82,338,.51l2.54-26.43c18.8,0,33-2,59.47,6.1V792c-152,41.17-312.59,42.19-465.07,1.53Z"
          transform="translate(-92.37 0.94)"/>
    <path class="cls-2"
          d="M721.6,728.93a190.31,190.31,0,0,0-41.67-4.58c-1,5.59-1,7.63-2,13.22C693.14,738.58,712.46,736,721.6,728.93Z"
          transform="translate(-92.37 0.94)"/>
    <path class="cls-3"
          d="M692.63,778.74l5.09-1.53c1.52,3.56,3.55,5.59,7.11,4.58,1.53,0,2.54-1,3.56-2,.51-1,1-2,.51-3,0-.51-.51-1-1-1.52s-1-1-1.52-1a39.36,39.36,0,0,0-5.09-.51,22,22,0,0,1-5.59-1,7.59,7.59,0,0,1-3-2.54,5.82,5.82,0,0,1-1.52-4.07,7,7,0,0,1,0-4.58,9.06,9.06,0,0,1,2.54-3.55,15.16,15.16,0,0,1,5.08-2A9.1,9.1,0,0,1,710.42,763l-5.08,1c-.51-1.53-1-2.55-2-3a6.39,6.39,0,0,0-6.61,1,2.23,2.23,0,0,0-.51,2.54c0,1,.51,1.53,1.53,2a17.9,17.9,0,0,0,5.08,1,25.52,25.52,0,0,1,6.1,1,5.25,5.25,0,0,1,3.05,2.54,18.37,18.37,0,0,1,2,4.58,11.13,11.13,0,0,1-1,7.11,9.65,9.65,0,0,1-7.62,4.07,10.18,10.18,0,0,1-12.71-7.12Zm-29-16.78,5.08-1,3,16.77a42.63,42.63,0,0,1,1,5.08,10.79,10.79,0,0,0,2,3.05,6.24,6.24,0,0,0,6.61-.51,3.87,3.87,0,0,0,1-2.54,24.71,24.71,0,0,0-.51-6.1l-3.05-17.28,5.08-1,3,16.26a55.84,55.84,0,0,1,1,9.15c0,2-1,3.56-2,5.08a11.6,11.6,0,0,1-6.1,3.05,9.88,9.88,0,0,1-6.61-.51,9,9,0,0,1-4.07-3.56,20.74,20.74,0,0,1-2.54-9.14ZM638.76,797l-4.07-31,8.13-1,7.63,20.33,2-21.85,8.13-1,4.07,31-5.08.5-3.05-24.39-2,24.9-5.08.51-8.13-23.89,3.05,24.4ZM625,786.87,620,775.69l-2.54,11.69Zm11.19,11.18-5.6.51-3-6.61-10.67,1-1.52,7.11-5.59.51,6.6-32,5.59-.51ZM589,776.19l2,20.34,4.07-.51c1,0,2.54-.51,3.55-.51.51-.51,1.53-1,2-1.53a7.28,7.28,0,0,0,1-3.05,25.6,25.6,0,0,0-1-10.67,10.63,10.63,0,0,0-2-3,3.85,3.85,0,0,0-2.54-1H589Zm-6.1-5.08,9.65-1a21.25,21.25,0,0,1,5.6.5,9.16,9.16,0,0,1,3.55,2.54,12,12,0,0,1,3.05,4.58,20.31,20.31,0,0,1,1.53,7.62,33.48,33.48,0,0,1-.51,7.12,15.36,15.36,0,0,1-2,5.08l-3.05,3.05c-1.53,1-3.56,1-5.09,1.53l-10.16,1ZM561,803.64l-1.52-31,19.82-1,.51,5.59-14.23.51.5,7.11,13.22-.5v5.08l-13.22.51.51,8.64,14.74-.51v5.08Zm-10.16-11.18,5.08,1.52a13.43,13.43,0,0,1-3.56,7.63,10.71,10.71,0,0,1-6.61,2.54c-3,0-6.6-1-8.64-3.56A20.36,20.36,0,0,1,533,788.9a16.39,16.39,0,0,1,3.56-12.71,10.85,10.85,0,0,1,8.64-4.06,13.64,13.64,0,0,1,7.62,2.54,12.24,12.24,0,0,1,3.56,6.1l-5.09,1.52a10,10,0,0,0-2-4.06c-1-1-2.54-1.53-3.56-1a5.35,5.35,0,0,0-4.57,2.54,11.8,11.8,0,0,0-1.53,8.13,14.9,14.9,0,0,0,2,8.14,6.26,6.26,0,0,0,5.08,2.54,4.61,4.61,0,0,0,3.56-1.53,39,39,0,0,0,.51-4.57Zm-40.66-3.56a14.86,14.86,0,0,0,2,8.13,6.35,6.35,0,0,0,10.16,0c1.53-2.54,2.54-5.08,2-8.13a14.86,14.86,0,0,0-2-8.13,6.35,6.35,0,0,0-10.16,0c-1.53,2.54-2.54,5.59-2,8.13Zm-5.6,0a28.7,28.7,0,0,1,1.53-9.15c2-4.57,6.1-7.62,11.18-7.11a11.9,11.9,0,0,1,9.15,4.06A17.37,17.37,0,0,1,530,788.9a15.59,15.59,0,0,1-4.07,12.2,11.9,11.9,0,0,1-9.15,4.07,11,11,0,0,1-9.15-4.07c-2-3.05-3.05-7.62-3.05-12.2Zm-20.33-2.54h8.64c.51,0,1.53-.51,1.53-1a3.79,3.79,0,0,0,.51-2.54,4.58,4.58,0,0,0-.51-2.54c-.51-.51-1-1-1.53-1a14.27,14.27,0,0,0-4.57-.5h-4.07Zm-5.59,18.3.51-31h11.18a25.36,25.36,0,0,1,6.1,1,4.57,4.57,0,0,1,3.05,3.05c1,1.52,1,3.56,1,5.08a9.79,9.79,0,0,1-2,6.1c-1.53,1.53-3.05,2.54-5.09,2.54a13.47,13.47,0,0,1,3.05,2.54c1,1.53,2,3.56,3.05,5.09l3.05,6.1h-6.61l-3.55-6.61c-1-1.53-1.53-3-2.55-4.58l-1.52-1.52a4.56,4.56,0,0,0-2.54-.51h-1v13.22Zm-18.29-26.43-.51,8.64h3a11.12,11.12,0,0,0,4.06-.51c.51-.51,1.53-.51,2-1.53a3.89,3.89,0,0,0,1-2.54,3.81,3.81,0,0,0-.51-2.54L468,778.23a14.06,14.06,0,0,0-4.58-.51Zm-6.1,25.92,1-31,8.64.51a24.63,24.63,0,0,1,6.1.51,7.94,7.94,0,0,1,4.07,3.05,13.61,13.61,0,0,1,1.52,6.1,10.29,10.29,0,0,1-1.52,5.59,6.82,6.82,0,0,1-3.56,3.05c-2,.51-4.57,1-6.61.51h-3.55l-.51,11.18h-5.59Zm-20.84-1.53,2-31,5.08.51-2,31ZM413.59,782.8l4.07.51h4.58c.5,0,1-.51,1.52-1a6,6,0,0,0,.51-5.08l-1.53-1.52a12.56,12.56,0,0,0-4.06-.51l-4.07-.51ZM407,800.59l3.05-31,11.18,1a13.53,13.53,0,0,1,6.1,1.53c1,.51,2,2,3.05,3,.51,1.52,1,3.56.51,5.08a8.14,8.14,0,0,1-2.55,5.59c-1.52,1.53-3.55,2-5.59,2.54,1,1,2,1.53,2.54,3.05a23.76,23.76,0,0,1,2.55,5.09l2.54,6.09-6.1-.5-3-7.12a20.91,20.91,0,0,0-2.54-4.57l-1.53-1.53a4.55,4.55,0,0,0-2.54-.51h-1l-1,13.22Zm-15.25-13.21.51-5.09,11.69,1-1.53,12.2a10.58,10.58,0,0,1-5.08,3c-2,.51-4.57,1-6.61.51a10.71,10.71,0,0,1-6.6-2.54,10.12,10.12,0,0,1-4.07-6.1,22.79,22.79,0,0,1,2-17.29,12.31,12.31,0,0,1,5.08-5.08,11.23,11.23,0,0,1,7.12-1,10,10,0,0,1,7.12,3.05,12.15,12.15,0,0,1,2.54,7.11l-5.59.51a6.27,6.27,0,0,0-2-4.07,4.61,4.61,0,0,0-3.55-1.52c-2-.51-4.07.51-5.6,2a10.36,10.36,0,0,0-3,7.63,12.7,12.7,0,0,0,1.52,8.64,5.6,5.6,0,0,0,5.08,3.05,6.41,6.41,0,0,0,3-.51l3.05-1.53.51-4.06ZM353.62,794l4.07-31,19.82,2.54L377,770.6l-14.23-1.52-1,7.11L375,777.72l-.51,5.08-13.22-1.52-1.52,9.15L374.46,792,374,797Zm-16.77-2.54L340.4,766l-8.13-1.53,1-5.08,20.84,3.05-1,5.08-7.62-1-3.56,25.92Zm-32-5.59,5.59-31,5.08,1,6.61,22.37,3.55-20.33,5.09,1-5.59,30.5-5.09-1L313,766.54l-3.56,19.82Zm-10.17-2,6.1-30.5,5.08,1-6.1,30.49Z"
          transform="translate(-92.37 0.94)"/>
    <path class="cls-1"
          d="M155.9,681.66c-1.52-20.84,43.21-32.53,79.8-11.18,43.2,36.08-42.69,45.23-58.45,18.8-4.57-9.66,3.56-11.69,10.67-6.61,13.22,8.64,44.73,11.69,41.68-1.52-9.15-11.69-44.22-11.18-50.32-7.63-45.23,22.37,45.75,51.34,67.6,37.62,55.4-19.32,78.28-7.63,77.77-5.59.51,8.64-6.1,8.13-21.86,7.11a81.76,81.76,0,0,0-41.17,7.62c0,17.29-1.52,38.12-1.52,55.41-36.6,2-68.62-3.05-96.57-22.88C162.51,731.47,153.87,687.76,155.9,681.66Z"
          transform="translate(-92.37 0.94)"/>
    <path class="cls-2"
          d="M280.94,727.4a166.82,166.82,0,0,1,42.18,1c0,5.59-.5,7.62-1,13.21C306.86,740.11,288.56,735.53,280.94,727.4Z"
          transform="translate(-92.37 0.94)"/>
    <path class="cls-3"
          d="M782.6-.94H217.4V528.67C217.4,705,375.47,640.49,500,712.15c143.84-87.93,282.6,5.59,282.6-183.48V-.94Z"
          transform="translate(-92.37 0.94)"/>
    <rect class="cls-4" x="124.53" y="265.82" width="565.19" height="9.66"/>
    <path class="cls-1"
          d="M679.93,13.29l-2.55,5.08-1.52,3.05-2,3.56,2,3.56-4.07,3.55c-1,.51,2,2,1,3l-2,3c-9.15,12.2-3,31.51,3.05,57.94-4.07,7.12-26.94-2.54-36.6-13.72-2.54,11.18,11.69,43.2,27.45,47.27l2.54,7.62C650.45,141.37,622,120,619.44,118c-1.52,28.46,19.82,48.79,40.16,58.45,2,1,1,8.64,3,10.17-19.83,4.57-38.12-13.73-54.39-23.38.51,20.33,11.18,39.64,28.46,50.31l9.66.51-2,5.08,7.11-1.52,1,7.12,5.59-4.07,3,5.59,2.54,4.57c4.07,9.15,2.54,22.88,4.07,35.58h34.56c-2-19.82-2.54-19.82,3.56-48.79,21.34-9.15,42.18-28,41.68-53.88-12.2,9.66-34.57,20.84-50.83,19.32l2.54-8.64c3-4.07,35.07-.51,45.74-58.45-12.19,12.7-29.48,19.31-46.76,19.31-1-1.52.51-2.54.51-5.08C708.9,118.5,721.1,117,722.62,81.9c-11.18,8.64-28,17.79-37.1,14.23,14.23-33,12.2-44.21,4.57-58.45-.51-1-4.06-1.52-4.06-3l.5-3.05-4.06-5.08.51-4.06C684.5,20.4,680.43,16.85,679.93,13.29Z"
          transform="translate(-92.37 0.94)"/>
    <path class="cls-1"
          d="M296.19,454.46c8.64,6.61,19.82,13.22,28.46,19.82,30.49-6.09,142.82-35.07,158.58,35.07-4.58,66.08-55.4,70.15-80.82,55.91-19.82-18.8-27.44-52.35,6.61-66.07,29.48-7.12,36.6,19.82,24.4,24.9-28.47,11.19,7.11,34.06,21.34.51,9.15-55.91-93-59.46-86.4,12.71,4.57,49.81,62.52,63.53,96.06,42.19,57.94-38.63,35.58-101.15,1-125C395.81,453.45,365.31,455,296.19,454.46Zm0,0c8.64-6.61,19.82-13.21,28.46-19.82,30.49,6.1,142.82,35.07,158.58-35.07-5.09-66.08-55.4-70.14-80.82-55.91C382.59,362.47,375,396,409,409.73c29.48,7.12,36.6-19.82,24.4-24.9-28.47-11.18,7.11-34.05,21.34-.51,9.15,55.91-93,59.47-86.4-12.71,4.57-50.31,62.52-63.53,96.06-42.18,57.94,38.63,35.58,99.62,1,123.51ZM500,443.79a10.68,10.68,0,1,1-10.67,10.67A10.73,10.73,0,0,1,500,443.79Zm203.31,10.67c-8.64-6.61-19.83-13.21-28.47-19.82-30.49,6.1-142.82,35.07-158.58-35.07,4.58-66.08,55.41-70.14,80.82-55.91,19.31,18.81,27.45,52.35-6.61,66.07-29.48,7.12-36.59-19.82-24.4-24.9,28.47-11.18-7.62-34.05-21.34-.51-9.15,55.91,93,59.47,86.4-12.71-4.57-50.31-62.51-63.53-96.06-42.18-57.94,38.63-35.58,101.14-1,125C603.69,456,634.69,454.46,703.31,454.46Zm0,0c-8.64,6.61-19.83,13.22-28.47,19.82-30.49-6.09-142.82-35.07-158.58,35.07,4.58,66.08,55.41,70.15,80.82,55.91,19.31-18.8,27.45-52.35-6.61-66.07-29.48-7.12-36.59,19.82-24.4,24.9,28.47,11.19-7.62,34.06-21.34.51-9.15-55.91,93-59.46,86.4,12.71-4.57,49.81-62.51,63.53-96.06,42.19-57.94-38.63-35.58-99.62-1-123.51C603.69,455,634.69,455,703.31,454.46Z"
          transform="translate(-92.37 0.94)"/>
    <path class="cls-5"
          d="M296.19,454.46c8.64,6.61,19.82,13.22,28.46,19.82,30.49-6.09,142.82-35.07,158.58,35.07-4.58,66.08-55.4,70.15-80.82,55.91-19.82-18.8-27.44-52.35,6.61-66.07,29.48-7.12,36.6,19.82,24.4,24.9-28.47,11.19,7.11,34.06,21.34.51,9.15-55.91-93-59.46-86.4,12.71,4.57,49.81,62.52,63.53,96.06,42.19,57.94-38.63,35.58-101.15,1-125C395.81,453.45,365.31,455,296.19,454.46Zm0,0c8.64-6.61,19.82-13.21,28.46-19.82,30.49,6.1,142.82,35.07,158.58-35.07-5.09-66.08-55.4-70.14-80.82-55.91C382.59,362.47,375,396,409,409.73c29.48,7.12,36.6-19.82,24.4-24.9-28.47-11.18,7.11-34.05,21.34-.51,9.15,55.91-93,59.47-86.4-12.71,4.57-50.31,62.52-63.53,96.06-42.18,57.94,38.63,35.58,99.62,1,123.51l-169.25,1.52M500,443.79a10.68,10.68,0,1,1-10.67,10.67A10.73,10.73,0,0,1,500,443.79Zm203.31,10.67c-8.64-6.61-19.83-13.21-28.47-19.82-30.49,6.1-142.82,35.07-158.58-35.07,4.58-66.08,55.41-70.14,80.82-55.91,19.31,18.81,27.45,52.35-6.61,66.07-29.48,7.12-36.59-19.82-24.4-24.9,28.47-11.18-7.62-34.05-21.34-.51-9.15,55.91,93,59.47,86.4-12.71-4.57-50.31-62.51-63.53-96.06-42.18-57.94,38.63-35.58,101.14-1,125C603.69,456,634.69,454.46,703.31,454.46Zm0,0c-8.64,6.61-19.83,13.22-28.47,19.82-30.49-6.09-142.82-35.07-158.58,35.07,4.58,66.08,55.41,70.15,80.82,55.91,19.31-18.8,27.45-52.35-6.61-66.07-29.48-7.12-36.59,19.82-24.4,24.9,28.47,11.19-7.62,34.06-21.34.51-9.15-55.91,93-59.46,86.4,12.71-4.57,49.81-62.51,63.53-96.06,42.19-57.94-38.63-35.58-99.62-1-123.51,69.64,0,100.13-.51,169.26-1.53"
          transform="translate(-92.37 0.94)"/>
    <path class="cls-1"
          d="M502.54,13.29,500,18.37l-1.52,3.05-2,3.56,2,3.56-4.07,3c-1,.51,2,2,1,3.05l-2,3c-9.15,12.2-3.05,31.52,3.56,58-4.07,7.11-26.94-2.55-36.59-13.73-2.55,11.18,11.18,43.21,27.44,47.27l2.54,7.63c-16.77,4.06-45.23-17.29-47.77-19.32-1.53,28.46,19.82,48.8,40.15,58.45,2,1,1,8.64,2.54,10.17-19.82,4.57-38.12-13.73-54.38-23.38.5,20.33,11.18,39.64,28.46,50.32l9.66.5-2,5.09,6.61-1.53.51,7.12,5.59-4.07,3.05,5.59,2.54,4.58c4.07,9.15,2.54,22.87,4.07,35.58h34.05c-2-19.83-2.54-19.83,3.56-48.8,21.35-9.15,42.18-27.95,41.68-53.87-12.2,9.65-34.57,20.83-50.83,19.31l2.54-8.64c3-4.07,35.07-.51,45.74-58.45-12.19,12.71-29,19.31-46.76,19.31-1-1.52.51-2.54.51-5.08,10.68-11.69,22.37-13.21,23.89-48.29-11.18,8.65-28,17.79-37.1,14.24,14.23-33,12.2-44.22,4.57-58.45-.51-1-4.06-1.53-4.06-3l.5-3.05L503.56,26l.51-4.06C507.62,20.4,503.56,16.85,502.54,13.29Z"
          transform="translate(-92.37 0.94)"/>
    <path class="cls-1"
          d="M320.07,13.29l-2.54,5.08L316,21.42,314,25l2,3.56-4.07,3c-1,.51,2,2,1,3.05l-2,3c-9.15,12.2-3.05,31.52,3,58-4.06,7.11-26.93-2.55-36.59-13.73-2.54,11.18,11.69,43.21,27.45,47.27l2.54,7.63c-16.78,4.06-45.24-17.29-47.27-19.32-1.53,28.46,19.82,48.8,40.15,58.45,2,1,1,8.64,3.05,10.17-19.82,4.57-38.12-13.73-54.38-23.38.5,20.33,11.18,39.64,28.46,50.32l9.66.5-2,5.09,6.61-1.53,1,7.12,5.59-4.07,3,5.59,2.54,4.58c4.07,9.15,2.54,22.87,4.07,35.58h34.56c-2-19.83-2.54-19.83,3.56-48.8,21.85-8.64,42.18-27.95,41.67-53.37-12.2,9.66-34.56,20.84-50.82,19.32l2.54-8.64c3.05-4.07,35.07-.51,45.74-58.45-12.2,12.7-29.48,19.31-46.76,19.31-1-1.52.51-2.54.51-5.08C349.55,118.5,361.24,117,362.77,81.9c-11.18,8.64-28,17.79-37.11,14.23,14.24-33,12.2-44.21,4.58-58.45-.51-1-4.07-2-4.07-3l.51-3.05-4.06-5.08.5-4.06C324.65,20.4,320.58,16.85,320.07,13.29Z"
          transform="translate(-92.37 0.94)"/>
    <rect class="cls-6" x="125.03" y="264.81" width="564.68" height="10.67"/>
    <path class="cls-7"
          d="M136.59,948.5V980A19.14,19.14,0,0,1,131,995.26a24,24,0,0,1-16.27,5.08c-6.09.51-11.69-1.53-16.77-5.08-4.06-4.07-5.59-9.66-5.59-15.25V948.5H103v30c0,3.56.51,6.61,3,9.66,2,2,5.09,3.56,8.14,3.05a11.55,11.55,0,0,0,8.13-3.05,12.75,12.75,0,0,0,2.54-9.66v-30Z"
          transform="translate(-92.37 0.94)"/>
    <path class="cls-7"
          d="M148.28,999.32V948.5h11.18L181.83,978a8.23,8.23,0,0,1,2,3.55,29.78,29.78,0,0,1,2.54,5.59c0-1.52-.51-3-.51-4.57v-34h10.17v50.82H185.38l-22.87-30a8.23,8.23,0,0,1-2-3.56,29.15,29.15,0,0,1-2.54-5.59c0,1.52.51,3,.51,4.57v34.56Z"
          transform="translate(-92.37 0.94)"/>
    <rect class="cls-7" x="115.88" y="949.44" width="10.67" height="50.83"/>
    <path class="cls-7"
          d="M243.83,999.32,225,948.5h11.69L246.38,980a20.44,20.44,0,0,0,1,3.56,18.84,18.84,0,0,1,1,6.1,18.46,18.46,0,0,1,1-5.59c.51-1.53.51-3.05,1-4.07l10.17-31.51H272.3l-18.81,50.82Z"
          transform="translate(-92.37 0.94)"/>
    <polygon class="cls-7"
             points="186.53 1000.27 186.53 949.44 216.52 949.44 216.52 958.59 197.21 958.59 197.21 969.26 216.52 969.26 216.52 978.41 197.21 978.41 197.21 991.12 216.52 991.12 216.52 1000.27 186.53 1000.27"/>
    <path class="cls-7"
          d="M330.75,970.35h1.52a12.68,12.68,0,0,0,8.64-1.52,4.85,4.85,0,0,0,2-5.09,7.64,7.64,0,0,0-2-5.59,16.36,16.36,0,0,0-8.64-1h-1.52Zm25.92,29H344l-13.21-23.38v23.38H320.07V948.5h15.25A21.47,21.47,0,0,1,349,952.05a12.35,12.35,0,0,1,4.58,10.68,15.25,15.25,0,0,1-3.05,9.15,13.2,13.2,0,0,1-8.13,4.57Z"
          transform="translate(-92.37 0.94)"/>
    <path class="cls-7"
          d="M360.23,992.72l6.1-6.61a8.06,8.06,0,0,0,3.55,4.57,10.24,10.24,0,0,0,5.59,1.53,9.73,9.73,0,0,0,6.1-2c1.53-1,2.55-3,2-4.57,0-2.54-2.54-4.57-7.12-7.12l-4.06-2a29.92,29.92,0,0,1-9.15-6.61,13.64,13.64,0,0,1-2.54-7.62,13.28,13.28,0,0,1,5.08-10.17C369.38,949,374,948,379,948a23.15,23.15,0,0,1,8.13,1.52,14.85,14.85,0,0,1,6.1,5.09l-6.1,6.09a4.54,4.54,0,0,0-3-3,9.44,9.44,0,0,0-9.66.5,4.61,4.61,0,0,0-2,4.07c0,2.54,2.54,5.08,7.62,7.12l2.54,1a25.29,25.29,0,0,1,9.66,6.61,13.82,13.82,0,0,1,3.05,8.64c0,4.57-1.53,8.64-5.09,11.18a17.25,17.25,0,0,1-13.21,4.07,20.57,20.57,0,0,1-9.66-2C363.78,997.8,361.75,995.26,360.23,992.72Z"
          transform="translate(-92.37 0.94)"/>
    <rect class="cls-7" x="311.57" y="949.44" width="10.67" height="50.83"/>
    <polygon class="cls-7"
             points="353.25 959.1 353.25 1000.27 342.57 1000.27 342.57 959.1 330.37 959.1 330.37 949.44 365.95 949.44 365.95 959.1 353.25 959.1"/>
    <path class="cls-7"
          d="M476.11,999.32V976.45L458.83,949h12.71l7.62,13.73,1,2.54a9.39,9.39,0,0,1,1,3.56,32.91,32.91,0,0,0,1-3.56l1.53-3,7.62-13.72h12.71l-17.28,27.44v22.87H476.11Z"
          transform="translate(-92.37 0.94)"/>
    <path class="cls-7"
          d="M548.79,991.19c4.58,0,8.64-1.52,11.19-4.57a18.57,18.57,0,0,0,0-24.4c-6.1-6.1-15.76-6.61-21.86-.51l-.51.51a18.55,18.55,0,0,0,0,24.4A17.15,17.15,0,0,0,548.79,991.19Zm26.94-17.28a22.83,22.83,0,0,1-2,10.17,33.86,33.86,0,0,1-6.1,8.64c-7.62,7.11-18.3,9.65-28,6.09a25.78,25.78,0,0,1-8.13-4.57,26,26,0,0,1-9.65-20.33,22.7,22.7,0,0,1,2-10.17,33.45,33.45,0,0,1,6.1-8.64,21.3,21.3,0,0,1,9.15-5.59,29.45,29.45,0,0,1,20.84,0c3,1.53,6.09,3,8.64,5.59a33.69,33.69,0,0,1,6.1,8.64A77.82,77.82,0,0,1,575.73,973.91Z"
          transform="translate(-92.37 0.94)"/>
    <polygon class="cls-7"
             points="493.02 1000.27 493.02 949.44 523.01 949.44 523.01 958.59 504.2 958.59 504.2 969.26 523.01 969.26 523.01 978.41 504.2 978.41 504.2 1000.27 493.02 1000.27"/>
    <path class="cls-7"
          d="M664.17,972.38h23.38v2.55a24.76,24.76,0,0,1-6.61,18.29,22.19,22.19,0,0,1-16.77,7.12,27.27,27.27,0,0,1-19.31-7.62,27.63,27.63,0,0,1,0-38.12A27.23,27.23,0,0,1,664.17,947a25.92,25.92,0,0,1,11.18,2.54,33.38,33.38,0,0,1,9.15,7.63l-7.12,5.59a17.3,17.3,0,0,0-5.59-5.08,16.16,16.16,0,0,0-7.11-1.53,18.25,18.25,0,0,0-12.2,4.57,19.24,19.24,0,0,0,0,24.91c3,3,7.12,5.08,11.69,4.57,3.05,0,6.1-.5,8.64-2.54a8.68,8.68,0,0,0,3.56-6.6v-.51h-12.2Z"
          transform="translate(-92.37 0.94)"/>
    <polygon class="cls-7"
             points="604.33 1000.27 604.33 949.44 615 949.44 615 969.77 636.86 969.77 636.86 949.44 647.53 949.44 647.53 1000.27 636.86 1000.27 636.86 978.92 615 978.92 615 1000.27 604.33 1000.27"/>
    <path class="cls-7"
          d="M746,999.32l19.31-50.82h12.2l19.32,50.82h-12.2l-4.07-10.67H760.74l-3.56,10.67ZM778,980l-5.59-16.27a21.4,21.4,0,0,1-.51-2.54l-.51-4.57c-.5,1.52-.5,3-1,4.57a6.82,6.82,0,0,0-.51,2.54L764.3,980Z"
          transform="translate(-92.37 0.94)"/>
    <path class="cls-7"
          d="M802.93,999.32V948.5h11.18L836.47,978a8.15,8.15,0,0,1,2,3.55c.5,1.53,1.52,3.05,2.54,5.59,0-1.52-.51-3-.51-4.57v-34H850.7v50.82H840l-22.87-30a8.24,8.24,0,0,1-2-3.56c-.5-1.53-1.52-3-2.54-5.59a14,14,0,0,1,.51,4.57v34.56Z"
          transform="translate(-92.37 0.94)"/>
    <path class="cls-7"
          d="M856.8,999.32l19.32-50.82h12.2l19.31,50.82h-12.2l-4.07-10.67H871.54L868,999.32Zm32-19.31-5.59-16.27a21.4,21.4,0,0,1-.51-2.54l-.5-4.57c-.51,1.52-.51,3-1,4.57a6.82,6.82,0,0,0-.51,2.54L875.1,980Z"
          transform="translate(-92.37 0.94)"/>
</svg>